<mxfile modified="2021-11-04T01:11:24.792Z" host="app.diagrams.net" agent="5.0 (Macintosh; Intel Mac OS X 10_15_7) AppleWebKit/537.36 (KHTML, like Gecko) Chrome/95.0.4638.69 Safari/537.36" etag="8JGm_53C04VOWaJ_i2ya" version="15.6.6" type="github">
  <diagram id="l8hXMBHkgcEJcSW0mbfh" name="Page-1">
    <mxGraphModel dx="2595" dy="1459" grid="1" gridSize="10" guides="1" tooltips="1" connect="1" arrows="1" fold="1" page="1" pageScale="1" pageWidth="1169" pageHeight="827" math="0" shadow="0">
      <root>
        <mxCell id="0" />
        <mxCell id="1" parent="0" />
        <mxCell id="QLdKvDdlwKD8bKzd8T9b-104" value="" style="rounded=0;whiteSpace=wrap;html=1;dashed=1;strokeWidth=2;strokeColor=#82b366;fillColor=#d5e8d4;" vertex="1" parent="1">
          <mxGeometry x="-262.5" y="-140" width="320" height="220" as="geometry" />
        </mxCell>
        <mxCell id="QLdKvDdlwKD8bKzd8T9b-105" style="edgeStyle=orthogonalEdgeStyle;rounded=0;orthogonalLoop=1;jettySize=auto;html=1;" edge="1" parent="1">
          <mxGeometry relative="1" as="geometry">
            <mxPoint x="-165" y="-560" as="targetPoint" />
            <mxPoint x="-165" y="-630" as="sourcePoint" />
            <Array as="points">
              <mxPoint x="-165" y="-580" />
              <mxPoint x="-165" y="-580" />
            </Array>
          </mxGeometry>
        </mxCell>
        <mxCell id="QLdKvDdlwKD8bKzd8T9b-106" style="edgeStyle=orthogonalEdgeStyle;rounded=0;orthogonalLoop=1;jettySize=auto;html=1;" edge="1" parent="1" source="QLdKvDdlwKD8bKzd8T9b-107" target="QLdKvDdlwKD8bKzd8T9b-149">
          <mxGeometry relative="1" as="geometry" />
        </mxCell>
        <mxCell id="QLdKvDdlwKD8bKzd8T9b-107" value="移动端Actor" style="shape=umlActor;verticalLabelPosition=bottom;verticalAlign=top;html=1;fillColor=#cce5ff;strokeColor=#36393d;" vertex="1" parent="1">
          <mxGeometry x="-180" y="-710" width="30" height="60" as="geometry" />
        </mxCell>
        <mxCell id="QLdKvDdlwKD8bKzd8T9b-108" style="edgeStyle=orthogonalEdgeStyle;rounded=0;orthogonalLoop=1;jettySize=auto;html=1;exitX=0.5;exitY=1;exitDx=0;exitDy=0;" edge="1" parent="1" source="QLdKvDdlwKD8bKzd8T9b-109">
          <mxGeometry relative="1" as="geometry">
            <mxPoint x="-15" y="-560" as="targetPoint" />
          </mxGeometry>
        </mxCell>
        <mxCell id="QLdKvDdlwKD8bKzd8T9b-109" value="&lt;span style=&quot;color: rgb(50 , 50 , 50) ; font-size: 13px ; background-color: rgba(255 , 255 , 255 , 0.01)&quot;&gt;小程序后端（业务站点）&lt;/span&gt;" style="ellipse;shape=umlEntity;whiteSpace=wrap;html=1;fillColor=#ffff88;strokeColor=#36393d;" vertex="1" parent="1">
          <mxGeometry x="-60" y="-710" width="90" height="80" as="geometry" />
        </mxCell>
        <mxCell id="QLdKvDdlwKD8bKzd8T9b-110" style="edgeStyle=orthogonalEdgeStyle;rounded=0;orthogonalLoop=1;jettySize=auto;html=1;exitX=0.5;exitY=1;exitDx=0;exitDy=0;entryX=0.5;entryY=0;entryDx=0;entryDy=0;" edge="1" parent="1" source="QLdKvDdlwKD8bKzd8T9b-111" target="QLdKvDdlwKD8bKzd8T9b-116">
          <mxGeometry relative="1" as="geometry" />
        </mxCell>
        <mxCell id="QLdKvDdlwKD8bKzd8T9b-111" value="&lt;span style=&quot;color: rgb(50 , 50 , 50) ; font-size: 13px ; background-color: rgba(255 , 255 , 255 , 0.01)&quot;&gt;智能网关3.0-准入网关&lt;/span&gt;" style="html=1;fillColor=#f5f5f5;strokeColor=#666666;fontColor=#333333;" vertex="1" parent="1">
          <mxGeometry x="-230" y="-550" width="140" height="60" as="geometry" />
        </mxCell>
        <mxCell id="QLdKvDdlwKD8bKzd8T9b-112" style="edgeStyle=orthogonalEdgeStyle;rounded=0;orthogonalLoop=1;jettySize=auto;html=1;exitX=0.5;exitY=1;exitDx=0;exitDy=0;entryX=0.5;entryY=0;entryDx=0;entryDy=0;" edge="1" parent="1" source="QLdKvDdlwKD8bKzd8T9b-113" target="QLdKvDdlwKD8bKzd8T9b-116">
          <mxGeometry relative="1" as="geometry" />
        </mxCell>
        <mxCell id="QLdKvDdlwKD8bKzd8T9b-113" value="&lt;span style=&quot;color: rgb(50 , 50 , 50) ; font-size: 13px ; background-color: rgba(255 , 255 , 255 , 0.01)&quot;&gt;智能网关3.0-API网关&lt;/span&gt;" style="html=1;strokeColor=#666666;fillColor=#f5f5f5;fontColor=#333333;" vertex="1" parent="1">
          <mxGeometry x="-70" y="-550" width="140" height="60" as="geometry" />
        </mxCell>
        <mxCell id="QLdKvDdlwKD8bKzd8T9b-114" style="edgeStyle=orthogonalEdgeStyle;rounded=0;orthogonalLoop=1;jettySize=auto;html=1;exitX=0.5;exitY=1;exitDx=0;exitDy=0;entryX=0.573;entryY=-0.02;entryDx=0;entryDy=0;entryPerimeter=0;strokeColor=#FF00FF;strokeWidth=2;" edge="1" parent="1" source="QLdKvDdlwKD8bKzd8T9b-116" target="QLdKvDdlwKD8bKzd8T9b-139">
          <mxGeometry relative="1" as="geometry" />
        </mxCell>
        <mxCell id="QLdKvDdlwKD8bKzd8T9b-115" style="edgeStyle=orthogonalEdgeStyle;rounded=0;orthogonalLoop=1;jettySize=auto;html=1;exitX=0.86;exitY=1;exitDx=0;exitDy=0;entryX=0.5;entryY=0;entryDx=0;entryDy=0;exitPerimeter=0;fillColor=#ffcc99;strokeColor=#FF9933;strokeWidth=2;" edge="1" parent="1" source="QLdKvDdlwKD8bKzd8T9b-116" target="QLdKvDdlwKD8bKzd8T9b-143">
          <mxGeometry relative="1" as="geometry">
            <Array as="points">
              <mxPoint x="11" y="-291" />
              <mxPoint x="10" y="-160" />
              <mxPoint x="405" y="-160" />
            </Array>
          </mxGeometry>
        </mxCell>
        <mxCell id="QLdKvDdlwKD8bKzd8T9b-116" value="" style="html=1;dashed=1;strokeWidth=2;strokeColor=#82b366;fillColor=#d5e8d4;" vertex="1" parent="1">
          <mxGeometry x="-260" y="-430" width="315" height="185" as="geometry" />
        </mxCell>
        <mxCell id="QLdKvDdlwKD8bKzd8T9b-117" value="&lt;div style=&quot;resize: none ; outline: 0px ; font-size: 13px ; color: rgb(50 , 50 , 50)&quot;&gt;&lt;br&gt;&lt;/div&gt;" style="html=1;strokeColor=#66B2FF;fillColor=#CCE5FF;" vertex="1" parent="1">
          <mxGeometry x="-170" y="-385" width="140" height="70" as="geometry" />
        </mxCell>
        <mxCell id="QLdKvDdlwKD8bKzd8T9b-118" value="&lt;div style=&quot;resize: none ; outline: 0px ; font-size: 13px ; color: rgb(50 , 50 , 50)&quot;&gt;&lt;br&gt;&lt;/div&gt;" style="html=1;strokeColor=#66B2FF;fillColor=#CCE5FF;" vertex="1" parent="1">
          <mxGeometry x="-160" y="-375" width="140" height="70" as="geometry" />
        </mxCell>
        <mxCell id="QLdKvDdlwKD8bKzd8T9b-119" value="&lt;div style=&quot;resize: none ; outline: 0px ; font-size: 13px ; color: rgb(50 , 50 , 50)&quot;&gt;&lt;/div&gt;&lt;span style=&quot;color: rgb(50 , 50 , 50) ; font-size: 13px ; background-color: rgba(255 , 255 , 255 , 0.01)&quot;&gt;TOF4移动认证模块&lt;br&gt;wechatit服务&lt;br&gt;（站点/服务）&lt;/span&gt;" style="html=1;strokeColor=#66B2FF;fillColor=#CCE5FF;" vertex="1" parent="1">
          <mxGeometry x="-150" y="-365" width="140" height="70" as="geometry" />
        </mxCell>
        <mxCell id="QLdKvDdlwKD8bKzd8T9b-120" value="CLB" style="html=1;fillColor=#e1d5e7;strokeColor=#9673a6;" vertex="1" parent="1">
          <mxGeometry x="-150" y="-405" width="70" height="20" as="geometry" />
        </mxCell>
        <mxCell id="QLdKvDdlwKD8bKzd8T9b-121" value="&lt;span style=&quot;color: rgb(50 , 50 , 50) ; font-size: 13px ; background-color: rgba(255 , 255 , 255 , 0.01)&quot;&gt;深圳OA区&lt;/span&gt;" style="text;html=1;strokeColor=none;fillColor=none;align=center;verticalAlign=middle;whiteSpace=wrap;rounded=0;" vertex="1" parent="1">
          <mxGeometry x="5" y="-410" width="40" height="20" as="geometry" />
        </mxCell>
        <mxCell id="QLdKvDdlwKD8bKzd8T9b-122" value="云上2台，云下2台" style="text;html=1;strokeColor=none;fillColor=none;align=center;verticalAlign=middle;whiteSpace=wrap;rounded=0;" vertex="1" parent="1">
          <mxGeometry x="-170" y="-290" width="150" height="20" as="geometry" />
        </mxCell>
        <mxCell id="QLdKvDdlwKD8bKzd8T9b-123" style="edgeStyle=orthogonalEdgeStyle;rounded=0;orthogonalLoop=1;jettySize=auto;html=1;exitX=0.5;exitY=1;exitDx=0;exitDy=0;entryX=0.564;entryY=0.02;entryDx=0;entryDy=0;entryPerimeter=0;strokeColor=#FF00FF;strokeWidth=2;" edge="1" parent="1" source="QLdKvDdlwKD8bKzd8T9b-125" target="QLdKvDdlwKD8bKzd8T9b-139">
          <mxGeometry relative="1" as="geometry">
            <mxPoint x="-102" y="-80" as="targetPoint" />
          </mxGeometry>
        </mxCell>
        <mxCell id="QLdKvDdlwKD8bKzd8T9b-124" style="edgeStyle=orthogonalEdgeStyle;rounded=0;orthogonalLoop=1;jettySize=auto;html=1;exitX=0.365;exitY=1.005;exitDx=0;exitDy=0;entryX=0.5;entryY=0;entryDx=0;entryDy=0;exitPerimeter=0;strokeWidth=2;strokeColor=#FF9933;" edge="1" parent="1" source="QLdKvDdlwKD8bKzd8T9b-125" target="QLdKvDdlwKD8bKzd8T9b-143">
          <mxGeometry relative="1" as="geometry" />
        </mxCell>
        <mxCell id="QLdKvDdlwKD8bKzd8T9b-125" value="" style="html=1;dashed=1;strokeColor=#666666;strokeWidth=2;fillColor=#f5f5f5;fontColor=#333333;" vertex="1" parent="1">
          <mxGeometry x="290" y="-430" width="315" height="185" as="geometry" />
        </mxCell>
        <mxCell id="QLdKvDdlwKD8bKzd8T9b-126" value="&lt;div style=&quot;resize: none ; outline: 0px ; font-size: 13px ; color: rgb(50 , 50 , 50)&quot;&gt;&lt;br&gt;&lt;/div&gt;" style="html=1;strokeColor=#66B2FF;fillColor=#CCE5FF;" vertex="1" parent="1">
          <mxGeometry x="380" y="-385" width="140" height="70" as="geometry" />
        </mxCell>
        <mxCell id="QLdKvDdlwKD8bKzd8T9b-127" value="CLB" style="html=1;fillColor=#e1d5e7;strokeColor=#9673a6;" vertex="1" parent="1">
          <mxGeometry x="400" y="-405" width="70" height="20" as="geometry" />
        </mxCell>
        <mxCell id="QLdKvDdlwKD8bKzd8T9b-128" value="&lt;span style=&quot;color: rgb(50 , 50 , 50) ; font-size: 13px ; background-color: rgba(255 , 255 , 255 , 0.01)&quot;&gt;广州&lt;br&gt;OA区&lt;/span&gt;" style="text;html=1;strokeColor=none;fillColor=none;align=center;verticalAlign=middle;whiteSpace=wrap;rounded=0;" vertex="1" parent="1">
          <mxGeometry x="550" y="-405" width="45" height="15" as="geometry" />
        </mxCell>
        <mxCell id="QLdKvDdlwKD8bKzd8T9b-129" value="暂未部署，后续扩容" style="text;html=1;strokeColor=none;fillColor=none;align=center;verticalAlign=middle;whiteSpace=wrap;rounded=0;" vertex="1" parent="1">
          <mxGeometry x="370" y="-290" width="170" height="20" as="geometry" />
        </mxCell>
        <mxCell id="QLdKvDdlwKD8bKzd8T9b-130" style="edgeStyle=orthogonalEdgeStyle;rounded=0;orthogonalLoop=1;jettySize=auto;html=1;" edge="1" parent="1">
          <mxGeometry relative="1" as="geometry">
            <mxPoint x="360" y="-560" as="targetPoint" />
            <mxPoint x="360" y="-630" as="sourcePoint" />
            <Array as="points">
              <mxPoint x="360" y="-580" />
              <mxPoint x="360" y="-580" />
            </Array>
          </mxGeometry>
        </mxCell>
        <mxCell id="QLdKvDdlwKD8bKzd8T9b-131" style="edgeStyle=orthogonalEdgeStyle;rounded=0;orthogonalLoop=1;jettySize=auto;html=1;" edge="1" parent="1" source="QLdKvDdlwKD8bKzd8T9b-132" target="QLdKvDdlwKD8bKzd8T9b-151">
          <mxGeometry relative="1" as="geometry" />
        </mxCell>
        <mxCell id="QLdKvDdlwKD8bKzd8T9b-132" value="移动端Actor" style="shape=umlActor;verticalLabelPosition=bottom;verticalAlign=top;html=1;fillColor=#cce5ff;strokeColor=#36393d;" vertex="1" parent="1">
          <mxGeometry x="345" y="-710" width="30" height="60" as="geometry" />
        </mxCell>
        <mxCell id="QLdKvDdlwKD8bKzd8T9b-133" style="edgeStyle=orthogonalEdgeStyle;rounded=0;orthogonalLoop=1;jettySize=auto;html=1;exitX=0.5;exitY=1;exitDx=0;exitDy=0;" edge="1" parent="1" source="QLdKvDdlwKD8bKzd8T9b-134">
          <mxGeometry relative="1" as="geometry">
            <mxPoint x="510" y="-560" as="targetPoint" />
          </mxGeometry>
        </mxCell>
        <mxCell id="QLdKvDdlwKD8bKzd8T9b-134" value="&lt;span style=&quot;color: rgb(50 , 50 , 50) ; font-size: 13px ; background-color: rgba(255 , 255 , 255 , 0.01)&quot;&gt;小程序后端（业务站点）&lt;/span&gt;" style="ellipse;shape=umlEntity;whiteSpace=wrap;html=1;fillColor=#ffff88;strokeColor=#36393d;" vertex="1" parent="1">
          <mxGeometry x="465" y="-710" width="90" height="80" as="geometry" />
        </mxCell>
        <mxCell id="QLdKvDdlwKD8bKzd8T9b-135" style="edgeStyle=orthogonalEdgeStyle;rounded=0;orthogonalLoop=1;jettySize=auto;html=1;exitX=0.5;exitY=1;exitDx=0;exitDy=0;entryX=0.5;entryY=0;entryDx=0;entryDy=0;" edge="1" parent="1" source="QLdKvDdlwKD8bKzd8T9b-136" target="QLdKvDdlwKD8bKzd8T9b-125">
          <mxGeometry relative="1" as="geometry">
            <Array as="points">
              <mxPoint x="365" y="-460" />
              <mxPoint x="448" y="-460" />
            </Array>
          </mxGeometry>
        </mxCell>
        <mxCell id="QLdKvDdlwKD8bKzd8T9b-136" value="&lt;span style=&quot;color: rgb(50 , 50 , 50) ; font-size: 13px ; background-color: rgba(255 , 255 , 255 , 0.01)&quot;&gt;智能网关3.0-准入网关&lt;/span&gt;" style="html=1;strokeColor=#666666;fillColor=#f5f5f5;fontColor=#333333;" vertex="1" parent="1">
          <mxGeometry x="295" y="-550" width="140" height="60" as="geometry" />
        </mxCell>
        <mxCell id="QLdKvDdlwKD8bKzd8T9b-137" style="edgeStyle=orthogonalEdgeStyle;rounded=0;orthogonalLoop=1;jettySize=auto;html=1;exitX=0.5;exitY=1;exitDx=0;exitDy=0;entryX=0.5;entryY=0;entryDx=0;entryDy=0;" edge="1" parent="1" source="QLdKvDdlwKD8bKzd8T9b-138" target="QLdKvDdlwKD8bKzd8T9b-125">
          <mxGeometry relative="1" as="geometry" />
        </mxCell>
        <mxCell id="QLdKvDdlwKD8bKzd8T9b-138" value="&lt;span style=&quot;color: rgb(50 , 50 , 50) ; font-size: 13px ; background-color: rgba(255 , 255 , 255 , 0.01)&quot;&gt;智能网关3.0-API网关&lt;/span&gt;" style="html=1;strokeColor=#666666;fillColor=#f5f5f5;fontColor=#333333;" vertex="1" parent="1">
          <mxGeometry x="455" y="-550" width="140" height="60" as="geometry" />
        </mxCell>
        <mxCell id="QLdKvDdlwKD8bKzd8T9b-139" value="PaaS Redis" style="html=1;strokeColor=#6c8ebf;fillColor=#dae8fc;" vertex="1" parent="1">
          <mxGeometry x="-230" y="10" width="270" height="40" as="geometry" />
        </mxCell>
        <mxCell id="QLdKvDdlwKD8bKzd8T9b-140" value="深圳云上" style="text;html=1;strokeColor=none;fillColor=none;align=center;verticalAlign=middle;whiteSpace=wrap;rounded=0;dashed=1;" vertex="1" parent="1">
          <mxGeometry x="-250" y="-130" width="70" height="20" as="geometry" />
        </mxCell>
        <mxCell id="QLdKvDdlwKD8bKzd8T9b-141" value="&lt;span style=&quot;color: rgb(50 , 50 , 50) ; font-size: 13px ; background-color: rgba(255 , 255 , 255 , 0.01)&quot;&gt;微信token定时抢锁,刷新后存入&lt;/span&gt;" style="text;html=1;strokeColor=none;fillColor=none;align=center;verticalAlign=middle;whiteSpace=wrap;rounded=0;dashed=1;" vertex="1" parent="1">
          <mxGeometry x="-255" y="-30" width="100" height="30" as="geometry" />
        </mxCell>
        <mxCell id="QLdKvDdlwKD8bKzd8T9b-142" value="&lt;span style=&quot;color: rgb(50 , 50 , 50) ; font-size: 13px ; background-color: rgba(255 , 255 , 255 , 0.01)&quot;&gt;配置信息及认证中间状态（授权码)&lt;/span&gt;" style="text;html=1;strokeColor=none;fillColor=none;align=center;verticalAlign=middle;whiteSpace=wrap;rounded=0;dashed=1;" vertex="1" parent="1">
          <mxGeometry x="-75" y="-45" width="120" height="60" as="geometry" />
        </mxCell>
        <mxCell id="QLdKvDdlwKD8bKzd8T9b-143" value="" style="rounded=0;whiteSpace=wrap;html=1;dashed=1;strokeWidth=2;strokeColor=#666666;fillColor=#f5f5f5;fontColor=#333333;" vertex="1" parent="1">
          <mxGeometry x="240" y="-80" width="280" height="160" as="geometry" />
        </mxCell>
        <mxCell id="QLdKvDdlwKD8bKzd8T9b-144" value="&lt;font style=&quot;font-size: 13px&quot;&gt;外部服务&lt;/font&gt;" style="text;html=1;strokeColor=none;fillColor=none;align=center;verticalAlign=middle;whiteSpace=wrap;rounded=0;dashed=1;" vertex="1" parent="1">
          <mxGeometry x="340" y="-50" width="85" height="20" as="geometry" />
        </mxCell>
        <mxCell id="QLdKvDdlwKD8bKzd8T9b-145" value="微信小程序后台服务" style="html=1;strokeColor=#666666;fillColor=#f5f5f5;fontColor=#333333;" vertex="1" parent="1">
          <mxGeometry x="340" y="-20" width="110" height="50" as="geometry" />
        </mxCell>
        <mxCell id="QLdKvDdlwKD8bKzd8T9b-146" value="&lt;div style=&quot;resize: none ; outline: 0px ; font-size: 13px ; color: rgb(50 , 50 , 50)&quot;&gt;&lt;br&gt;&lt;/div&gt;" style="html=1;strokeColor=#66B2FF;fillColor=#CCE5FF;" vertex="1" parent="1">
          <mxGeometry x="390" y="-375" width="140" height="70" as="geometry" />
        </mxCell>
        <mxCell id="QLdKvDdlwKD8bKzd8T9b-147" value="&lt;div style=&quot;resize: none ; outline: 0px ; font-size: 13px ; color: rgb(50 , 50 , 50)&quot;&gt;&lt;/div&gt;&lt;span style=&quot;color: rgb(50 , 50 , 50) ; font-size: 13px ; background-color: rgba(255 , 255 , 255 , 0.01)&quot;&gt;TOF4移动认证模块&lt;/span&gt;&lt;br style=&quot;color: rgb(50 , 50 , 50) ; font-size: 13px&quot;&gt;&lt;span style=&quot;color: rgb(50 , 50 , 50) ; font-size: 13px ; background-color: rgba(255 , 255 , 255 , 0.01)&quot;&gt;wechatit服务&lt;/span&gt;&lt;br style=&quot;color: rgb(50 , 50 , 50) ; font-size: 13px&quot;&gt;&lt;span style=&quot;color: rgb(50 , 50 , 50) ; font-size: 13px ; background-color: rgba(255 , 255 , 255 , 0.01)&quot;&gt;（站点/服务）&lt;/span&gt;" style="html=1;strokeColor=#66B2FF;fillColor=#CCE5FF;" vertex="1" parent="1">
          <mxGeometry x="400" y="-365" width="140" height="70" as="geometry" />
        </mxCell>
        <mxCell id="QLdKvDdlwKD8bKzd8T9b-148" style="edgeStyle=orthogonalEdgeStyle;rounded=0;orthogonalLoop=1;jettySize=auto;html=1;entryX=0.5;entryY=0;entryDx=0;entryDy=0;" edge="1" parent="1" source="QLdKvDdlwKD8bKzd8T9b-149" target="QLdKvDdlwKD8bKzd8T9b-116">
          <mxGeometry relative="1" as="geometry" />
        </mxCell>
        <mxCell id="QLdKvDdlwKD8bKzd8T9b-149" value="&lt;span style=&quot;color: rgb(50 , 50 , 50) ; font-size: 13px ; background-color: rgba(255 , 255 , 255 , 0.01)&quot;&gt;智能网关2.0-移动网关&lt;/span&gt;" style="html=1;fillColor=#f5f5f5;strokeColor=#666666;fontColor=#333333;" vertex="1" parent="1">
          <mxGeometry x="-390" y="-550" width="140" height="60" as="geometry" />
        </mxCell>
        <mxCell id="QLdKvDdlwKD8bKzd8T9b-150" style="edgeStyle=orthogonalEdgeStyle;rounded=0;orthogonalLoop=1;jettySize=auto;html=1;exitX=0.5;exitY=1;exitDx=0;exitDy=0;" edge="1" parent="1" source="QLdKvDdlwKD8bKzd8T9b-151">
          <mxGeometry relative="1" as="geometry">
            <mxPoint x="448" y="-432" as="targetPoint" />
            <Array as="points">
              <mxPoint x="200" y="-461" />
              <mxPoint x="448" y="-461" />
            </Array>
          </mxGeometry>
        </mxCell>
        <mxCell id="QLdKvDdlwKD8bKzd8T9b-151" value="&lt;span style=&quot;color: rgb(50 , 50 , 50) ; font-size: 13px ; background-color: rgba(255 , 255 , 255 , 0.01)&quot;&gt;智能网关2.0-移动网关&lt;/span&gt;" style="html=1;strokeColor=#666666;fillColor=#f5f5f5;fontColor=#333333;" vertex="1" parent="1">
          <mxGeometry x="130" y="-550" width="140" height="60" as="geometry" />
        </mxCell>
      </root>
    </mxGraphModel>
  </diagram>
</mxfile>
